<?xml version="1.0" encoding="UTF-8" standalone="no"?>
<!-- Generated by graphviz version 2.28.0 (20110507.0327)
 -->

<!-- Title: g Pages: 1 -->

<svg
   xmlns:dc="http://purl.org/dc/elements/1.1/"
   xmlns:cc="http://creativecommons.org/ns#"
   xmlns:rdf="http://www.w3.org/1999/02/22-rdf-syntax-ns#"
   xmlns:svg="http://www.w3.org/2000/svg"
   xmlns="http://www.w3.org/2000/svg"
   xmlns:sodipodi="http://sodipodi.sourceforge.net/DTD/sodipodi-0.dtd"
   xmlns:inkscape="http://www.inkscape.org/namespaces/inkscape"
   width="2328pt"
   height="1664pt"
   viewBox="0.00 0.00 2328.00 1664.00"
   id="svg2"
   version="1.1"
   inkscape:version="0.48.2 r9819"
   sodipodi:docname="code_src.svg"
   inkscape:export-filename="C:\work\drom\stackdrom\trunk\slides\radix8_6\code.png"
   inkscape:export-xdpi="90"
   inkscape:export-ydpi="90">
  <metadata
     id="metadata2059">
    <rdf:RDF>
      <cc:Work
         rdf:about="">
        <dc:format>image/svg+xml</dc:format>
        <dc:type
           rdf:resource="http://purl.org/dc/dcmitype/StillImage" />
        <dc:title />
      </cc:Work>
    </rdf:RDF>
  </metadata>
  <defs
     id="defs2057">
    <inkscape:path-effect
       effect="spiro"
       id="path-effect3229"
       is_visible="true" />
    <inkscape:path-effect
       effect="spiro"
       id="path-effect3229-6"
       is_visible="true" />
    <inkscape:path-effect
       effect="spiro"
       id="path-effect3229-6-9"
       is_visible="true" />
    <inkscape:path-effect
       effect="spiro"
       id="path-effect3229-6-9-5"
       is_visible="true" />
  </defs>
  <sodipodi:namedview
     pagecolor="#ffffff"
     bordercolor="#666666"
     borderopacity="1"
     objecttolerance="10"
     gridtolerance="10"
     guidetolerance="10"
     inkscape:pageopacity="0"
     inkscape:pageshadow="2"
     inkscape:window-width="1299"
     inkscape:window-height="746"
     id="namedview2055"
     showgrid="true"
     inkscape:zoom="0.5"
     inkscape:cx="1253.4221"
     inkscape:cy="1169.484"
     inkscape:window-x="-2"
     inkscape:window-y="-1"
     inkscape:window-maximized="1"
     inkscape:current-layer="svg2">
    <inkscape:grid
       type="xygrid"
       id="grid3999" />
  </sodipodi:namedview>
  <rect
     style="color:#000000;fill:#000000;fill-opacity:1;fill-rule:nonzero;stroke:#000000;stroke-width:0.80000001;stroke-linecap:round;stroke-linejoin:round;stroke-miterlimit:3;stroke-opacity:1;stroke-dasharray:none;stroke-dashoffset:0;marker:none;visibility:visible;display:inline;overflow:visible;enable-background:accumulate"
     id="rect5036"
     width="2397.2881"
     height="1711.5933"
     x="-1.7627021"
     y="-7.0508089" />
  <g
     id="g6273"
     transform="translate(-1086.0481,2.8731431)">
    <g
       transform="translate(4,1660)"
       id="node30"
       class="node">
      <title
         id="title602">im-2,5_in</title>
      <polygon
         points="1414.83,-320.562 1295.17,-320.562 1295.12,-300.438 1295.12,-300.438 1355,-288 1414.88,-300.438 "
         id="polygon604"
         style="fill:none;stroke:#ffffff" />
      <text
         x="1355"
         y="-302.29999"
         font-size="14.00"
         id="text606"
         style="font-size:14px;text-anchor:middle;fill:#ffffff;font-family:'Helvetica,sans-Serif'">im-2,5_in</text>
    </g>
    <g
       transform="translate(4,1660)"
       id="node116"
       class="node">
      <title
         id="title609">re-6,2</title>
      <ellipse
         cx="1355"
         cy="-234"
         rx="35.1455"
         ry="18"
         id="ellipse611"
         d="m 1390.1455,-234 c 0,9.94113 -15.7352,18 -35.1455,18 -19.4103,0 -35.1455,-8.05887 -35.1455,-18 0,-9.94113 15.7352,-18 35.1455,-18 19.4103,0 35.1455,8.05887 35.1455,18 z"
         sodipodi:cx="1355"
         sodipodi:cy="-234"
         sodipodi:rx="35.1455"
         sodipodi:ry="18"
         style="fill:#00ffff;stroke:#00ffff" />
      <text
         x="1355"
         y="-230.3"
         font-size="14.00"
         id="text613"
         style="font-size:14px;text-anchor:middle;font-family:'Helvetica,sans-Serif'">re-6,2</text>
    </g>
    <g
       transform="translate(4,1660)"
       id="edge102"
       class="edge">
      <title
         id="title616">im-2,5_in-&gt;re-6,2</title>
      <path
         d="m 1355,-287.697 c 0,7.714 0,16.985 0,25.585"
         id="path618"
         inkscape:connector-curvature="0"
         style="fill:none;stroke:#ffffff;stroke-width:2" />
      <polygon
         points="1358.5,-262.104 1358.5,-262.104 1355,-252.104 1351.5,-262.104 "
         id="polygon620"
         style="fill:#ffffff;stroke:#ffffff" />
      <text
         x="1359.23"
         y="-257.46701"
         font-size="14.00"
         id="text622"
         style="font-size:14px;text-anchor:middle;fill:#ffff00;font-family:'Helvetica,sans-Serif'">-1</text>
    </g>
    <g
       transform="translate(4,1660)"
       id="node119"
       class="node">
      <title
         id="title625">re-6,6</title>
      <ellipse
         cx="1355"
         cy="-90"
         rx="35.1455"
         ry="18"
         id="ellipse627"
         d="m 1390.1455,-90 c 0,9.941125 -15.7352,18 -35.1455,18 -19.4103,0 -35.1455,-8.058875 -35.1455,-18 0,-9.941125 15.7352,-18 35.1455,-18 19.4103,0 35.1455,8.058875 35.1455,18 z"
         sodipodi:cx="1355"
         sodipodi:cy="-90"
         sodipodi:rx="35.1455"
         sodipodi:ry="18"
         style="fill:#00ffff;stroke:#00ffff" />
      <text
         x="1355"
         y="-86.300003"
         font-size="14.00"
         id="text629"
         style="font-size:14px;text-anchor:middle;font-family:'Helvetica,sans-Serif'">re-6,6</text>
    </g>
    <g
       transform="translate(4,1660)"
       id="edge104"
       class="edge">
      <title
         id="title632">im-2,5_in-&gt;re-6,6</title>
      <path
         d="m 1339.25,-290.849 c -9.87,9.857 -21.89,23.88 -28.25,38.849 -18.82,44.299 -26.21,63.445 -8,108 5.12,12.523 14.78,23.685 24.4,32.498"
         id="path634"
         inkscape:connector-curvature="0"
         style="fill:none;stroke:#ffffff;stroke-width:2" />
      <polygon
         points="1329.71,-114.129 1329.71,-114.129 1335.01,-104.957 1325.15,-108.819 "
         id="polygon636"
         style="fill:#ffffff;stroke:#ffffff" />
    </g>
    <g
       transform="translate(4,1660)"
       id="node65"
       class="node">
      <title
         id="title1074">re-0,0</title>
      <polygon
         points="1398.03,-1364.56 1311.97,-1364.56 1311.93,-1344.44 1311.93,-1344.44 1355,-1332 1398.07,-1344.44 "
         id="polygon1076"
         style="fill:none;stroke:#ffffff" />
      <text
         x="1355"
         y="-1346.3"
         font-size="14.00"
         id="text1078"
         style="font-size:14px;text-anchor:middle;fill:#ffffff;font-family:'Helvetica,sans-Serif'">re-0,0</text>
    </g>
    <g
       transform="translate(4,1660)"
       id="node71"
       class="node">
      <title
         id="title1081">re-0,4</title>
      <polygon
         points="1398.03,-1292.56 1311.97,-1292.56 1311.93,-1272.44 1311.93,-1272.44 1355,-1260 1398.07,-1272.44 "
         id="polygon1083"
         style="fill:none;stroke:#ffffff" />
      <text
         x="1355"
         y="-1274.3"
         font-size="14.00"
         id="text1085"
         style="font-size:14px;text-anchor:middle;fill:#ffffff;font-family:'Helvetica,sans-Serif'">re-0,4</text>
    </g>
    <g
       transform="translate(4,1660)"
       id="node85"
       class="node">
      <title
         id="title1088">re-2,0</title>
      <ellipse
         cx="1355"
         cy="-972"
         rx="35.1455"
         ry="18"
         id="ellipse1090"
         d="m 1390.1455,-972 c 0,9.94113 -15.7352,18 -35.1455,18 -19.4103,0 -35.1455,-8.05887 -35.1455,-18 0,-9.94113 15.7352,-18 35.1455,-18 19.4103,0 35.1455,8.05887 35.1455,18 z"
         sodipodi:cx="1355"
         sodipodi:cy="-972"
         sodipodi:rx="35.1455"
         sodipodi:ry="18"
         style="fill:#00ffff;stroke:#00ffff" />
      <text
         x="1355"
         y="-968.29999"
         font-size="14.00"
         id="text1092"
         style="font-size:14px;text-anchor:middle;font-family:'Helvetica,sans-Serif'">re-2,0</text>
    </g>
    <g
       transform="translate(4,1660)"
       id="edge206"
       class="edge">
      <title
         id="title1095">re-0,0-&gt;re-2,0</title>
      <path
         d="m 1338.32,-1336.47 c -11.74,9.73 -26.8,24.27 -35.32,40.47 -37.58,71.49 -44.75,101.68 -25,180 11.33,44.95 39.87,91.15 58.84,118.448"
         id="path1097"
         inkscape:connector-curvature="0"
         style="fill:none;stroke:#ffffff;stroke-width:2" />
      <polygon
         points="1339.94,-999.229 1339.94,-999.229 1342.86,-989.047 1334.23,-995.182 "
         id="polygon1099"
         style="fill:#ffffff;stroke:#ffffff" />
    </g>
    <g
       transform="translate(4,1660)"
       id="node90"
       class="node">
      <title
         id="title1102">re-2,4</title>
      <ellipse
         cx="1355"
         cy="-1206"
         rx="35.1455"
         ry="18"
         id="ellipse1104"
         d="m 1390.1455,-1206 c 0,9.9411 -15.7352,18 -35.1455,18 -19.4103,0 -35.1455,-8.0589 -35.1455,-18 0,-9.9411 15.7352,-18 35.1455,-18 19.4103,0 35.1455,8.0589 35.1455,18 z"
         sodipodi:cx="1355"
         sodipodi:cy="-1206"
         sodipodi:rx="35.1455"
         sodipodi:ry="18"
         style="fill:#00ffff;stroke:#00ffff" />
      <text
         x="1355"
         y="-1202.3"
         font-size="14.00"
         id="text1106"
         style="font-size:14px;text-anchor:middle;font-family:'Helvetica,sans-Serif'">re-2,4</text>
    </g>
    <g
       transform="translate(4,1660)"
       id="edge208"
       class="edge">
      <title
         id="title1109">re-0,0-&gt;re-2,4</title>
      <path
         d="m 1372.63,-1336.91 c 12.2,9.51 27.45,23.97 34.37,40.91 6.05,14.81 6.05,21.19 0,36 -5.12,12.52 -14.78,23.69 -24.4,32.5"
         id="path1111"
         inkscape:connector-curvature="0"
         style="fill:none;stroke:#ffffff;stroke-width:2" />
      <polygon
         points="1384.85,-1224.82 1384.85,-1224.82 1374.99,-1220.96 1380.29,-1230.13 "
         id="polygon1113"
         style="fill:#ffffff;stroke:#ffffff" />
    </g>
    <g
       transform="translate(4,1660)"
       id="node68"
       class="node">
      <title
         id="title1158">re-0,2</title>
      <polygon
         points="1364.03,-1652.56 1277.97,-1652.56 1277.93,-1632.44 1277.93,-1632.44 1321,-1620 1364.07,-1632.44 "
         id="polygon1160"
         style="fill:none;stroke:#ffffff" />
      <text
         x="1321"
         y="-1634.3"
         font-size="14.00"
         id="text1162"
         style="font-size:14px;text-anchor:middle;fill:#ffffff;font-family:'Helvetica,sans-Serif'">re-0,2</text>
    </g>
    <g
       transform="translate(4,1660)"
       id="node78"
       class="node">
      <title
         id="title1165">re-1,2</title>
      <ellipse
         cx="1355"
         cy="-1422"
         rx="35.1455"
         ry="18"
         id="ellipse1167"
         d="m 1390.1455,-1422 c 0,9.9411 -15.7352,18 -35.1455,18 -19.4103,0 -35.1455,-8.0589 -35.1455,-18 0,-9.9411 15.7352,-18 35.1455,-18 19.4103,0 35.1455,8.0589 35.1455,18 z"
         sodipodi:cx="1355"
         sodipodi:cy="-1422"
         sodipodi:rx="35.1455"
         sodipodi:ry="18"
         style="fill:#00ffff;stroke:#00ffff" />
      <text
         x="1355"
         y="-1418.3"
         font-size="14.00"
         id="text1169"
         style="font-size:14px;text-anchor:middle;font-family:'Helvetica,sans-Serif'">re-1,2</text>
    </g>
    <g
       transform="translate(4,1660)"
       id="edge214"
       class="edge">
      <title
         id="title1172">re-0,2-&gt;re-1,2</title>
      <path
         d="m 1311.25,-1622.45 c -18.24,29.22 -53.52,96.47 -28.25,146.45 7.95,15.72 22.99,27.91 37.28,36.62"
         id="path1174"
         inkscape:connector-curvature="0"
         style="fill:none;stroke:#ffffff;stroke-width:2" />
      <polygon
         points="1322.05,-1442.4 1322.05,-1442.4 1329.01,-1434.41 1318.59,-1436.32 "
         id="polygon1176"
         style="fill:#ffffff;stroke:#ffffff" />
    </g>
    <g
       transform="translate(4,1660)"
       id="node81"
       class="node">
      <title
         id="title1179">re-1,6</title>
      <ellipse
         cx="1355"
         cy="-1566"
         rx="35.1455"
         ry="18"
         id="ellipse1181"
         d="m 1390.1455,-1566 c 0,9.9411 -15.7352,18 -35.1455,18 -19.4103,0 -35.1455,-8.0589 -35.1455,-18 0,-9.9411 15.7352,-18 35.1455,-18 19.4103,0 35.1455,8.0589 35.1455,18 z"
         sodipodi:cx="1355"
         sodipodi:cy="-1566"
         sodipodi:rx="35.1455"
         sodipodi:ry="18"
         style="fill:#00ffff;stroke:#00ffff" />
      <text
         x="1355"
         y="-1562.3"
         font-size="14.00"
         id="text1183"
         style="font-size:14px;text-anchor:middle;font-family:'Helvetica,sans-Serif'">re-1,6</text>
    </g>
    <g
       transform="translate(4,1660)"
       id="edge216"
       class="edge">
      <title
         id="title1186">re-0,2-&gt;re-1,6</title>
      <path
         d="m 1328.38,-1621.81 c 4.1,8.44 9.31,19.18 14.04,28.91"
         id="path1188"
         inkscape:connector-curvature="0"
         style="fill:none;stroke:#ffffff;stroke-width:2" />
      <polygon
         points="1345.7,-1594.15 1345.7,-1594.15 1346.92,-1583.63 1339.41,-1591.09 "
         id="polygon1190"
         style="fill:#ffffff;stroke:#ffffff" />
    </g>
    <g
       transform="translate(4,1660)"
       id="edge224"
       class="edge">
      <title
         id="title1242">re-0,4-&gt;re-2,0</title>
      <path
         d="m 1341.72,-1263.54 c -9.51,10.2 -22.11,24.9 -30.72,39.54 -17.41,29.59 -21.67,38.25 -28,72 -10.89,58.02 27.35,121 52.22,154.602"
         id="path1244"
         inkscape:connector-curvature="0"
         style="fill:none;stroke:#ffffff;stroke-width:2" />
      <polygon
         points="1338.25,-999.194 1338.25,-999.194 1341.53,-989.117 1332.68,-994.953 "
         id="polygon1246"
         style="fill:#ffffff;stroke:#ffffff" />
    </g>
    <g
       transform="translate(4,1660)"
       id="edge226"
       class="edge">
      <title
         id="title1249">re-0,4-&gt;re-2,4</title>
      <path
         d="m 1355,-1259.7 c 0,7.72 0,16.99 0,25.59"
         id="path1251"
         inkscape:connector-curvature="0"
         style="fill:none;stroke:#ffffff;stroke-width:2" />
      <polygon
         points="1358.5,-1234.1 1358.5,-1234.1 1355,-1224.1 1351.5,-1234.1 "
         id="polygon1253"
         style="fill:#ffffff;stroke:#ffffff" />
      <text
         x="1359.23"
         y="-1229.47"
         font-size="14.00"
         id="text1255"
         style="font-size:14px;text-anchor:middle;fill:#ffff00;font-family:'Helvetica,sans-Serif'">-1</text>
    </g>
    <g
       transform="translate(4,1660)"
       id="node74"
       class="node">
      <title
         id="title1281">re-0,6</title>
      <polygon
         points="1470.03,-1652.56 1383.97,-1652.56 1383.93,-1632.44 1383.93,-1632.44 1427,-1620 1470.07,-1632.44 "
         id="polygon1283"
         style="fill:none;stroke:#ffffff" />
      <text
         x="1427"
         y="-1634.3"
         font-size="14.00"
         id="text1285"
         style="font-size:14px;text-anchor:middle;fill:#ffffff;font-family:'Helvetica,sans-Serif'">re-0,6</text>
    </g>
    <g
       transform="translate(4,1660)"
       id="edge234"
       class="edge">
      <title
         id="title1288">re-0,6-&gt;re-1,2</title>
      <path
         d="m 1431.38,-1620.82 c 7.28,30.31 18.82,96.92 -5.38,144.82 -7.8,15.43 -22.43,27.53 -36.4,36.24"
         id="path1290"
         inkscape:connector-curvature="0"
         style="fill:none;stroke:#ffffff;stroke-width:2" />
      <polygon
         points="1391,-1436.52 1391,-1436.52 1380.6,-1434.52 1387.48,-1442.57 "
         id="polygon1292"
         style="fill:#ffffff;stroke:#ffffff" />
    </g>
    <g
       transform="translate(4,1660)"
       id="edge236"
       class="edge">
      <title
         id="title1295">re-0,6-&gt;re-1,6</title>
      <path
         d="m 1413.46,-1623.83 c -9.96,9.68 -23.74,23.07 -35.41,34.42"
         id="path1297"
         inkscape:connector-curvature="0"
         style="fill:none;stroke:#ffffff;stroke-width:2" />
      <polygon
         points="1380.35,-1586.76 1380.35,-1586.76 1370.74,-1582.3 1375.47,-1591.78 "
         id="polygon1299"
         style="fill:#ffffff;stroke:#ffffff" />
      <text
         x="1380.1801"
         y="-1581.89"
         font-size="14.00"
         id="text1301"
         style="font-size:14px;text-anchor:middle;fill:#ffff00;font-family:'Helvetica,sans-Serif'">-1</text>
    </g>
    <g
       transform="translate(4,1660)"
       id="node99"
       class="node">
      <title
         id="title1364">re-4,0</title>
      <ellipse
         cx="1355"
         cy="-810"
         rx="35.1455"
         ry="18"
         id="ellipse1366"
         d="m 1390.1455,-810 c 0,9.94113 -15.7352,18 -35.1455,18 -19.4103,0 -35.1455,-8.05887 -35.1455,-18 0,-9.94113 15.7352,-18 35.1455,-18 19.4103,0 35.1455,8.05887 35.1455,18 z"
         sodipodi:cx="1355"
         sodipodi:cy="-810"
         sodipodi:rx="35.1455"
         sodipodi:ry="18"
         style="fill:#00ffff;stroke:#00ffff" />
      <text
         x="1355"
         y="-806.29999"
         font-size="14.00"
         id="text1368"
         style="font-size:14px;text-anchor:middle;font-family:'Helvetica,sans-Serif'">re-4,0</text>
    </g>
    <g
       transform="translate(4,1660)"
       id="edge250"
       class="edge">
      <title
         id="title1371">re-1,2-&gt;re-4,0</title>
      <path
         d="m 1321.21,-1417.04 c -66.77,9.91 -209.21,42.27 -209.21,138.04 0,0 0,0 0,146 0,140.132 148.45,257.918 213.29,302.684"
         id="path1373"
         inkscape:connector-curvature="0"
         style="fill:none;stroke:#ffffff;stroke-width:2" />
      <polygon
         points="1327.56,-833.006 1327.56,-833.006 1333.86,-824.489 1323.62,-827.217 "
         id="polygon1375"
         style="fill:#ffffff;stroke:#ffffff" />
    </g>
    <g
       transform="translate(4,1660)"
       id="node100"
       class="node">
      <title
         id="title1378">re-4,2</title>
      <ellipse
         cx="1355"
         cy="-738"
         rx="35.1455"
         ry="18"
         id="ellipse1380"
         d="m 1390.1455,-738 c 0,9.94113 -15.7352,18 -35.1455,18 -19.4103,0 -35.1455,-8.05887 -35.1455,-18 0,-9.94113 15.7352,-18 35.1455,-18 19.4103,0 35.1455,8.05887 35.1455,18 z"
         sodipodi:cx="1355"
         sodipodi:cy="-738"
         sodipodi:rx="35.1455"
         sodipodi:ry="18"
         style="fill:#00ffff;stroke:#00ffff" />
      <text
         x="1355"
         y="-734.29999"
         font-size="14.00"
         id="text1382"
         style="font-size:14px;text-anchor:middle;font-family:'Helvetica,sans-Serif'">re-4,2</text>
    </g>
    <g
       transform="translate(4,1660)"
       id="edge252"
       class="edge">
      <title
         id="title1385">re-1,2-&gt;re-4,2</title>
      <path
         d="m 1375.76,-1407.38 c 31.62,22.59 88.24,71.04 88.24,128.38 0,0 0,0 0,308 0,82.366 -4.34,109.159 -48,179 -8.08,12.923 -20.29,24.422 -31.66,33.378"
         id="path1387"
         inkscape:connector-curvature="0"
         style="fill:none;stroke:#ffffff;stroke-width:2" />
      <polygon
         points="1386.37,-755.771 1386.37,-755.771 1376.27,-752.565 1382.17,-761.368 "
         id="polygon1389"
         style="fill:#ffffff;stroke:#ffffff" />
      <text
         x="1386.0601"
         y="-750.927"
         font-size="14.00"
         id="text1391"
         style="font-size:14px;text-anchor:middle;fill:#ffff00;font-family:'Helvetica,sans-Serif'">-1</text>
    </g>
    <g
       transform="translate(4,1660)"
       id="node83"
       class="node">
      <title
         id="title1438">re-1,6_ou</title>
      <polygon
         points="1417.44,-1508.56 1292.56,-1508.56 1292.51,-1488.44 1292.51,-1488.44 1355,-1476 1417.49,-1488.44 "
         id="polygon1440"
         style="fill:none;stroke:#ffffff" />
      <text
         x="1355"
         y="-1490.3"
         font-size="14.00"
         id="text1442"
         style="font-size:14px;text-anchor:middle;fill:#ffffff;font-family:'Helvetica,sans-Serif'">re-1,6_ou</text>
    </g>
    <g
       transform="translate(4,1660)"
       id="edge270"
       class="edge">
      <title
         id="title1445">re-1,6-&gt;re-1,6_ou</title>
      <path
         d="m 1355,-1547.7 c 0,8.71 0,19.4 0,28.87"
         id="path1447"
         inkscape:connector-curvature="0"
         style="fill:none;stroke:#ffffff;stroke-width:2" />
      <polygon
         points="1358.5,-1518.82 1358.5,-1518.82 1355,-1508.82 1351.5,-1518.82 "
         id="polygon1449"
         style="fill:#ffffff;stroke:#ffffff" />
    </g>
    <g
       transform="translate(4,1660)"
       id="edge278"
       class="edge">
      <title
         id="title1489">re-2,0-&gt;re-4,0</title>
      <path
         d="m 1355,-953.877 c 0,27.523 0,81.869 0,115.028"
         id="path1491"
         inkscape:connector-curvature="0"
         style="fill:none;stroke:#ffffff;stroke-width:2" />
      <polygon
         points="1358.5,-838.485 1358.5,-838.485 1355,-828.485 1351.5,-838.485 "
         id="polygon1493"
         style="fill:#ffffff;stroke:#ffffff" />
    </g>
    <g
       transform="translate(4,1660)"
       id="edge280"
       class="edge">
      <title
         id="title1496">re-2,0-&gt;re-4,2</title>
      <path
         d="m 1365.49,-954.369 c 18.82,32.037 54.48,104.276 33.51,162.369 -4.1,11.368 -11.82,22.02 -19.67,30.75"
         id="path1498"
         inkscape:connector-curvature="0"
         style="fill:none;stroke:#ffffff;stroke-width:2" />
      <polygon
         points="1381.64,-758.603 1381.64,-758.603 1372.2,-753.807 1376.59,-763.448 "
         id="polygon1500"
         style="fill:#ffffff;stroke:#ffffff" />
    </g>
    <g
       transform="translate(4,1660)"
       id="node88"
       class="node">
      <title
         id="title1533">re-2,3_in</title>
      <polygon
         points="1413.41,-680.562 1296.59,-680.562 1296.53,-660.438 1296.53,-660.438 1355,-648 1413.47,-660.438 "
         id="polygon1535"
         style="fill:none;stroke:#ffffff" />
      <text
         x="1355"
         y="-662.29999"
         font-size="14.00"
         id="text1537"
         style="font-size:14px;text-anchor:middle;fill:#ffffff;font-family:'Helvetica,sans-Serif'">re-2,3_in</text>
    </g>
    <g
       transform="translate(4,1660)"
       id="node101"
       class="node">
      <title
         id="title1540">re-5,0</title>
      <ellipse
         cx="1355"
         cy="-594"
         rx="35.1455"
         ry="18"
         id="ellipse1542"
         d="m 1390.1455,-594 c 0,9.94113 -15.7352,18 -35.1455,18 -19.4103,0 -35.1455,-8.05887 -35.1455,-18 0,-9.94113 15.7352,-18 35.1455,-18 19.4103,0 35.1455,8.05887 35.1455,18 z"
         sodipodi:cx="1355"
         sodipodi:cy="-594"
         sodipodi:rx="35.1455"
         sodipodi:ry="18"
         style="fill:#00ffff;stroke:#00ffff" />
      <text
         x="1355"
         y="-590.29999"
         font-size="14.00"
         id="text1544"
         style="font-size:14px;text-anchor:middle;font-family:'Helvetica,sans-Serif'">re-5,0</text>
    </g>
    <g
       transform="translate(4,1660)"
       id="edge284"
       class="edge">
      <title
         id="title1547">re-2,3_in-&gt;re-5,0</title>
      <path
         d="m 1355,-647.697 c 0,7.714 0,16.985 0,25.585"
         id="path1549"
         inkscape:connector-curvature="0"
         style="fill:none;stroke:#ffffff;stroke-width:2" />
      <polygon
         points="1358.5,-622.104 1358.5,-622.104 1355,-612.104 1351.5,-622.104 "
         id="polygon1551"
         style="fill:#ffffff;stroke:#ffffff" />
    </g>
    <g
       transform="translate(4,1660)"
       id="node108"
       class="node">
      <title
         id="title1554">re-5,4</title>
      <ellipse
         cx="1355"
         cy="-450"
         rx="35.1455"
         ry="18"
         id="ellipse1556"
         d="m 1390.1455,-450 c 0,9.94113 -15.7352,18 -35.1455,18 -19.4103,0 -35.1455,-8.05887 -35.1455,-18 0,-9.94113 15.7352,-18 35.1455,-18 19.4103,0 35.1455,8.05887 35.1455,18 z"
         sodipodi:cx="1355"
         sodipodi:cy="-450"
         sodipodi:rx="35.1455"
         sodipodi:ry="18"
         style="fill:#00ffff;stroke:#00ffff" />
      <text
         x="1355"
         y="-446.29999"
         font-size="14.00"
         id="text1558"
         style="font-size:14px;text-anchor:middle;font-family:'Helvetica,sans-Serif'">re-5,4</text>
    </g>
    <g
       transform="translate(4,1660)"
       id="edge286"
       class="edge">
      <title
         id="title1561">re-2,3_in-&gt;re-5,4</title>
      <path
         d="m 1370.75,-650.849 c 9.87,9.857 21.89,23.88 28.25,38.849 18.82,44.299 26.21,63.445 8,108 -5.12,12.523 -14.78,23.685 -24.4,32.498"
         id="path1563"
         inkscape:connector-curvature="0"
         style="fill:none;stroke:#ffffff;stroke-width:2" />
      <polygon
         points="1384.85,-468.819 1384.85,-468.819 1374.99,-464.957 1380.29,-474.129 "
         id="polygon1565"
         style="fill:#ffffff;stroke:#ffffff" />
      <text
         x="1384.61"
         y="-463.95801"
         font-size="14.00"
         id="text1567"
         style="font-size:14px;text-anchor:middle;fill:#ffff00;font-family:'Helvetica,sans-Serif'">-1</text>
    </g>
    <g
       transform="translate(4,1660)"
       id="node92"
       class="node">
      <title
         id="title1577">re-2,4_ou</title>
      <polygon
         points="1417.44,-1148.56 1292.56,-1148.56 1292.51,-1128.44 1292.51,-1128.44 1355,-1116 1417.49,-1128.44 "
         id="polygon1579"
         style="fill:none;stroke:#ffffff" />
      <text
         x="1355"
         y="-1130.3"
         font-size="14.00"
         id="text1581"
         style="font-size:14px;text-anchor:middle;fill:#ffffff;font-family:'Helvetica,sans-Serif'">re-2,4_ou</text>
    </g>
    <g
       transform="translate(4,1660)"
       id="edge302"
       class="edge">
      <title
         id="title1584">re-2,4-&gt;re-2,4_ou</title>
      <path
         d="m 1355,-1187.7 c 0,8.71 0,19.4 0,28.87"
         id="path1586"
         inkscape:connector-curvature="0"
         style="fill:none;stroke:#ffffff;stroke-width:2" />
      <polygon
         points="1358.5,-1158.82 1358.5,-1158.82 1355,-1148.82 1351.5,-1158.82 "
         id="polygon1588"
         style="fill:#ffffff;stroke:#ffffff" />
    </g>
    <g
       transform="translate(4,1660)"
       id="edge330"
       class="edge">
      <title
         id="title1716">re-4,0-&gt;re-5,0</title>
      <path
         d="m 1339.43,-793.453 c -9.3,9.995 -20.76,23.655 -28.43,37.453 -16.39,29.483 -18.6,38.705 -24,72 -2.56,15.793 -7.02,21.623 0,36 7.33,15.004 21.18,26.997 34.49,35.752"
         id="path1718"
         inkscape:connector-curvature="0"
         style="fill:none;stroke:#ffffff;stroke-width:2" />
      <polygon
         points="1323.39,-615.185 1323.39,-615.185 1330.07,-606.962 1319.72,-609.223 "
         id="polygon1720"
         style="fill:#ffffff;stroke:#ffffff" />
    </g>
    <g
       transform="translate(4,1660)"
       id="edge332"
       class="edge">
      <title
         id="title1723">re-4,0-&gt;re-5,4</title>
      <path
         d="m 1331.78,-796.485 c -36.15,21.37 -101.78,68.56 -101.78,129.485 0,0 0,0 0,74 0,56.165 55.78,100.658 92.81,124.01"
         id="path1725"
         inkscape:connector-curvature="0"
         style="fill:none;stroke:#ffffff;stroke-width:2" />
      <polygon
         points="1325.07,-471.713 1325.07,-471.713 1331.78,-463.515 1321.42,-465.739 "
         id="polygon1727"
         style="fill:#ffffff;stroke:#ffffff" />
    </g>
    <g
       transform="translate(4,1660)"
       id="edge336"
       class="edge">
      <title
         id="title1730">re-4,2-&gt;re-6,2</title>
      <path
         d="m 1376.78,-723.604 c 14.28,9.633 32.58,23.693 45.22,39.604 27.2,34.25 42,45.261 42,89 0,0 0,0 0,218 0,43.367 -13.1,54.984 -40,89 -10.61,13.413 -25.32,25.327 -38.44,34.445"
         id="path1732"
         inkscape:connector-curvature="0"
         style="fill:none;stroke:#ffffff;stroke-width:2" />
      <polygon
         points="1387.48,-250.632 1387.48,-250.632 1377.22,-247.979 1383.59,-256.45 "
         id="polygon1734"
         style="fill:#ffffff;stroke:#ffffff" />
    </g>
    <g
       transform="translate(4,1660)"
       id="edge338"
       class="edge">
      <title
         id="title1737">re-4,2-&gt;re-6,6</title>
      <path
         d="m 1381.28,-726.075 c 42.28,19.537 120.72,64.721 120.72,131.075 0,0 0,0 0,362 0,61.818 -68.08,105.262 -111.58,126.71"
         id="path1739"
         inkscape:connector-curvature="0"
         style="fill:none;stroke:#ffffff;stroke-width:2" />
      <polygon
         points="1391.81,-103.076 1391.81,-103.076 1381.28,-101.925 1388.8,-109.393 "
         id="polygon1741"
         style="fill:#ffffff;stroke:#ffffff" />
    </g>
    <g
       transform="translate(4,1660)"
       id="node121"
       class="node">
      <title
         id="title1744">re-7,0</title>
      <polygon
         points="1398.03,-536.562 1311.97,-536.562 1311.93,-516.438 1311.93,-516.438 1355,-504 1398.07,-516.438 "
         id="polygon1746"
         style="fill:none;stroke:#ffffff" />
      <text
         x="1355"
         y="-518.29999"
         font-size="14.00"
         id="text1748"
         style="font-size:14px;text-anchor:middle;fill:#ffffff;font-family:'Helvetica,sans-Serif'">re-7,0</text>
    </g>
    <g
       transform="translate(4,1660)"
       id="edge340"
       class="edge">
      <title
         id="title1751">re-5,0-&gt;re-7,0</title>
      <path
         d="m 1355,-575.697 c 0,8.707 0,19.397 0,28.868"
         id="path1753"
         inkscape:connector-curvature="0"
         style="fill:none;stroke:#ffffff;stroke-width:2" />
      <polygon
         points="1358.5,-546.824 1358.5,-546.824 1355,-536.825 1351.5,-546.825 "
         id="polygon1755"
         style="fill:#ffffff;stroke:#ffffff" />
    </g>
    <g
       transform="translate(4,1660)"
       id="node125"
       class="node">
      <title
         id="title1877">re-7,4</title>
      <polygon
         points="1398.03,-392.562 1311.97,-392.562 1311.93,-372.438 1311.93,-372.438 1355,-360 1398.07,-372.438 "
         id="polygon1879"
         style="fill:none;stroke:#ffffff" />
      <text
         x="1355"
         y="-374.29999"
         font-size="14.00"
         id="text1881"
         style="font-size:14px;text-anchor:middle;fill:#ffffff;font-family:'Helvetica,sans-Serif'">re-7,4</text>
    </g>
    <g
       transform="translate(4,1660)"
       id="edge362"
       class="edge">
      <title
         id="title1884">re-5,4-&gt;re-7,4</title>
      <path
         d="m 1355,-431.697 c 0,8.707 0,19.397 0,28.868"
         id="path1886"
         inkscape:connector-curvature="0"
         style="fill:none;stroke:#ffffff;stroke-width:2" />
      <polygon
         points="1358.5,-402.824 1358.5,-402.824 1355,-392.825 1351.5,-402.825 "
         id="polygon1888"
         style="fill:#ffffff;stroke:#ffffff" />
    </g>
    <g
       transform="translate(4,1660)"
       id="node123"
       class="node">
      <title
         id="title1986">re-7,2</title>
      <polygon
         points="1398.03,-176.562 1311.97,-176.562 1311.93,-156.438 1311.93,-156.438 1355,-144 1398.07,-156.438 "
         id="polygon1988"
         style="fill:none;stroke:#ffffff" />
      <text
         x="1355"
         y="-158.3"
         font-size="14.00"
         id="text1990"
         style="font-size:14px;text-anchor:middle;fill:#ffffff;font-family:'Helvetica,sans-Serif'">re-7,2</text>
    </g>
    <g
       transform="translate(4,1660)"
       id="edge386"
       class="edge">
      <title
         id="title1993">re-6,2-&gt;re-7,2</title>
      <path
         d="m 1355,-215.697 c 0,8.707 0,19.397 0,28.868"
         id="path1995"
         inkscape:connector-curvature="0"
         style="fill:none;stroke:#ffffff;stroke-width:2" />
      <polygon
         points="1358.5,-186.824 1358.5,-186.824 1355,-176.825 1351.5,-186.825 "
         id="polygon1997"
         style="fill:#ffffff;stroke:#ffffff" />
    </g>
    <g
       transform="translate(4,1660)"
       id="node127"
       class="node">
      <title
         id="title2028">re-7,6</title>
      <polygon
         points="1398.03,-32.5623 1311.97,-32.5623 1311.93,-12.4377 1311.93,-12.4377 1355,7.10543e-015 1398.07,-12.4377 "
         id="polygon2030"
         style="fill:none;stroke:#ffffff" />
      <text
         x="1355"
         y="-14.3"
         font-size="14.00"
         id="text2032"
         style="font-size:14px;text-anchor:middle;fill:#ffffff;font-family:'Helvetica,sans-Serif'">re-7,6</text>
    </g>
    <g
       transform="translate(4,1660)"
       id="edge392"
       class="edge">
      <title
         id="title2035">re-6,6-&gt;re-7,6</title>
      <path
         d="m 1355,-71.6966 c 0,8.7071 0,19.3971 0,28.8679"
         id="path2037"
         inkscape:connector-curvature="0"
         style="fill:none;stroke:#ffffff;stroke-width:2" />
      <polygon
         points="1358.5,-42.8245 1358.5,-42.8245 1355,-32.8245 1351.5,-42.8246 "
         id="polygon2039"
         style="fill:#ffffff;stroke:#ffffff" />
    </g>
  </g>
  <text
     xml:space="preserve"
     style="font-size:8.80000019px;font-style:normal;font-variant:normal;font-weight:normal;font-stretch:normal;text-align:start;line-height:125%;letter-spacing:0px;word-spacing:0px;text-anchor:start;fill:#000000;fill-opacity:1;stroke:none;font-family:arial;-inkscape-font-specification:arial"
     x="392.54156"
     y="393.14545"
     id="text6117"
     sodipodi:linespacing="125%"><tspan
       sodipodi:role="line"
       id="tspan6119"
       x="392.54156"
       y="393.14545"
       style="font-size:25.60000038px;font-weight:bold;fill:#eeeeee;font-family:Courier New;-inkscape-font-specification:Courier New"><tspan
   style="font-weight:bold;fill:#ffff99"
   id="tspan6492">      re-0,6@</tspan>   (re-0,6 re-1,2 re-1,6)                                                                    </tspan><tspan
       sodipodi:role="line"
       x="392.54156"
       y="425.14545"
       id="tspan6121"
       style="font-size:25.60000038px;font-weight:bold;fill:#eeeeee;font-family:Courier New;-inkscape-font-specification:Courier New"><tspan
   style="font-weight:bold;fill:#ffff99"
   id="tspan6502">      re-0,2@</tspan>   (re-0,6 re-1,2 re-1,6)  (re-0,2 re-1,6 re-1,2)                                            </tspan><tspan
       sodipodi:role="line"
       x="392.54156"
       y="457.14545"
       id="tspan6123"
       style="font-size:25.60000038px;font-weight:bold;fill:#eeeeee;font-family:Courier New;-inkscape-font-specification:Courier New">       2dup <tspan
   style="font-weight:bold;fill:#b3defd"
   id="tspan6165">+</tspan>   (re-0,6 re-1,2)         (re-0,2 re-1,2)         (re-1,6 re-1,6_ou)                        </tspan><tspan
       sodipodi:role="line"
       x="392.54156"
       y="489.14545"
       id="tspan6125"
       style="font-size:25.60000038px;font-weight:bold;fill:#eeeeee;font-family:Courier New;-inkscape-font-specification:Courier New"><tspan
   style="font-weight:bold;fill:#ffff99"
   id="tspan6504">   re-1,6_ou!</tspan>   (re-0,6 re-1,2)         (re-0,2 re-1,2)                                                   </tspan><tspan
       sodipodi:role="line"
       x="392.54156"
       y="521.14545"
       id="tspan6127"
       style="font-size:25.60000038px;font-weight:bold;fill:#eeeeee;font-family:Courier New;-inkscape-font-specification:Courier New">            +   (re-1,2 re-4,2 re-4,0)                                                                    </tspan><tspan
       sodipodi:role="line"
       x="392.54156"
       y="553.14545"
       id="tspan6129"
       style="font-size:25.60000038px;font-weight:bold;fill:#eeeeee;font-family:Courier New;-inkscape-font-specification:Courier New"><tspan
   style="font-weight:bold;fill:#ffff99"
   id="tspan6506">      re-0,4@</tspan>   (re-1,2 re-4,2 re-4,0)  (re-0,4 re-2,0 re-2,4)                                            </tspan><tspan
       sodipodi:role="line"
       x="392.54156"
       y="585.14545"
       id="tspan6131"
       style="font-size:25.60000038px;font-weight:bold;fill:#eeeeee;font-family:Courier New;-inkscape-font-specification:Courier New"><tspan
   style="font-weight:bold;fill:#ffff99"
   id="tspan6508">      re-0,0@</tspan>   (re-1,2 re-4,2 re-4,0)  (re-0,4 re-2,0 re-2,4)  (re-0,0 re-2,4 re-2,0)                    </tspan><tspan
       sodipodi:role="line"
       x="392.54156"
       y="617.14545"
       id="tspan6133"
       style="font-size:25.60000038px;font-weight:bold;fill:#eeeeee;font-family:Courier New;-inkscape-font-specification:Courier New">       2dup <tspan
   style="font-weight:bold;fill:#b3defd"
   id="tspan6167">+</tspan>   (re-1,2 re-4,2 re-4,0)  (re-0,4 re-2,0)         (re-0,0 re-2,0)         (re-2,4 re-2,4_ou)</tspan><tspan
       sodipodi:role="line"
       x="392.54156"
       y="649.14545"
       id="tspan6135"
       style="font-size:25.60000038px;font-weight:bold;fill:#eeeeee;font-family:Courier New;-inkscape-font-specification:Courier New"><tspan
   style="font-weight:bold;fill:#ffff99"
   id="tspan6510">   re-2,4_ou!</tspan>   (re-1,2 re-4,2 re-4,0)  (re-0,4 re-2,0)         (re-0,0 re-2,0)                           </tspan><tspan
       sodipodi:role="line"
       x="392.54156"
       y="681.14545"
       id="tspan6137"
       style="font-size:25.60000038px;font-weight:bold;fill:#eeeeee;font-family:Courier New;-inkscape-font-specification:Courier New"><tspan
   style="font-weight:bold;fill:#b3defd"
   id="tspan6169">            +</tspan>   (re-1,2 re-4,2 re-4,0)  (re-2,0 re-4,0 re-4,2)                                            </tspan><tspan
       sodipodi:role="line"
       x="392.54156"
       y="713.14545"
       id="tspan6139"
       style="font-size:25.60000038px;font-weight:bold;fill:#eeeeee;font-family:Courier New;-inkscape-font-specification:Courier New">       2dup +   (re-1,2 re-4,0)         (re-2,0 re-4,0)         (re-4,2 re-6,6 re-6,2)                    </tspan><tspan
       sodipodi:role="line"
       x="392.54156"
       y="745.14551"
       id="tspan6141"
       style="font-size:25.60000038px;font-weight:bold;fill:#eeeeee;font-family:Courier New;-inkscape-font-specification:Courier New">      &gt;r + r&gt;   (re-4,0 re-5,4 re-5,0)  (re-4,2 re-6,6 re-6,2)                                            </tspan><tspan
       sodipodi:role="line"
       x="392.54156"
       y="777.14551"
       id="tspan6143"
       style="font-size:25.60000038px;font-weight:bold;fill:#eeeeee;font-family:Courier New;-inkscape-font-specification:Courier New"><tspan
   style="fill:#ffff99"
   id="tspan6514">   im-2,5_in@</tspan>   (re-4,0 re-5,4 re-5,0)  (re-4,2 re-6,6 re-6,2)  (im-2,5_in re-6,2 re-6,6)                 </tspan><tspan
       sodipodi:role="line"
       x="392.54156"
       y="809.14551"
       id="tspan6145"
       style="font-size:25.60000038px;font-weight:bold;fill:#eeeeee;font-family:Courier New;-inkscape-font-specification:Courier New">       2dup <tspan
   style="font-weight:bold;fill:#b3defd"
   id="tspan6173">+</tspan>   (re-4,0 re-5,4 re-5,0)  (re-4,2 re-6,6)         (im-2,5_in re-6,6)      (re-6,2 re-7,2)   </tspan><tspan
       sodipodi:role="line"
       x="392.54156"
       y="841.14551"
       id="tspan6147"
       style="font-size:25.60000038px;font-weight:bold;fill:#eeeeee;font-family:Courier New;-inkscape-font-specification:Courier New"><tspan
   style="fill:#ffff99"
   id="tspan6516">      re-7,2!</tspan>   (re-4,0 re-5,4 re-5,0)  (re-4,2 re-6,6)         (im-2,5_in re-6,6)                        </tspan><tspan
       sodipodi:role="line"
       x="392.54156"
       y="873.14551"
       id="tspan6149"
       style="font-size:25.60000038px;font-weight:bold;fill:#eeeeee;font-family:Courier New;-inkscape-font-specification:Courier New"><tspan
   style="font-weight:bold;fill:#b3defd"
   id="tspan6175">            +</tspan>   (re-4,0 re-5,4 re-5,0)  (re-6,6 re-7,6)                                                   </tspan><tspan
       sodipodi:role="line"
       x="392.54156"
       y="905.14551"
       id="tspan6151"
       style="font-size:25.60000038px;font-weight:bold;fill:#eeeeee;font-family:Courier New;-inkscape-font-specification:Courier New"><tspan
   style="fill:#ffff99"
   id="tspan6518">      re-7,6!</tspan>   (re-4,0 re-5,4 re-5,0)                                                                    </tspan><tspan
       sodipodi:role="line"
       x="392.54156"
       y="937.14551"
       id="tspan6153"
       style="font-size:25.60000038px;font-weight:bold;fill:#eeeeee;font-family:Courier New;-inkscape-font-specification:Courier New"><tspan
   style="fill:#ffff99"
   id="tspan6520">   re-2,3_in@</tspan>   (re-4,0 re-5,4 re-5,0)  (re-2,3_in re-5,4 re-5,0)                                         </tspan><tspan
       sodipodi:role="line"
       x="392.54156"
       y="969.14551"
       id="tspan6155"
       style="font-size:25.60000038px;font-weight:bold;fill:#eeeeee;font-family:Courier New;-inkscape-font-specification:Courier New">       2dup <tspan
   style="font-weight:bold;fill:#b3defd"
   id="tspan6177">+</tspan>   (re-4,0 re-5,0)         (re-2,3_in re-5,0)      (re-5,4 re-7,4)                           </tspan><tspan
       sodipodi:role="line"
       x="392.54156"
       y="1001.1455"
       id="tspan6157"
       style="font-size:25.60000038px;font-weight:bold;fill:#eeeeee;font-family:Courier New;-inkscape-font-specification:Courier New"><tspan
   style="fill:#ffff99"
   id="tspan6522">      re-7,4!</tspan>   (re-4,0 re-5,0)         (re-2,3_in re-5,0)                                                </tspan><tspan
       sodipodi:role="line"
       x="392.54156"
       y="1033.1455"
       id="tspan6159"
       style="font-size:25.60000038px;font-weight:bold;fill:#eeeeee;font-family:Courier New;-inkscape-font-specification:Courier New"><tspan
   style="font-weight:bold;fill:#b3defd"
   id="tspan6179">            +</tspan>   (re-5,0 re-7,0)                                                                           </tspan><tspan
       sodipodi:role="line"
       x="392.54156"
       y="1065.1455"
       id="tspan6161"
       style="font-size:25.60000038px;font-weight:bold;fill:#eeeeee;font-family:Courier New;-inkscape-font-specification:Courier New"><tspan
         style="fill:#ffff99"
         id="tspan6524">      re-7,0!                                                                                             </tspan></tspan><tspan
       sodipodi:role="line"
       x="392.54156"
       y="1097.1455"
       id="tspan6163"
       style="font-size:25.60000038px;font-weight:bold;fill:#eeeeee;font-family:Courier New;-inkscape-font-specification:Courier New" /></text>
  <text
     xml:space="preserve"
     style="font-size:32px;font-style:normal;font-weight:normal;line-height:125%;letter-spacing:0px;word-spacing:0px;fill:#000000;fill-opacity:1;stroke:none;font-family:Sans"
     x="1024"
     y="256"
     id="text3223"
     sodipodi:linespacing="125%"><tspan
       sodipodi:role="line"
       id="tspan3225"
       x="1024"
       y="256"
       style="fill:#ffffff">stack entry</tspan></text>
  <path
     style="fill:none;stroke:#ffffff;stroke-width:2;stroke-linecap:round;stroke-linejoin:round;stroke-miterlimit:4;stroke-opacity:1;stroke-dasharray:none"
     d="m 1360,340 -140,160 -420,0"
     id="path3227"
     inkscape:path-effect="#path-effect3229"
     inkscape:original-d="m 1360,340 -140,160 -420,0"
     inkscape:connector-curvature="0"
     transform="scale(0.8,0.8)"
     sodipodi:nodetypes="ccc" />
  <path
     style="fill:none;stroke:#ffffff;stroke-width:1.60000002;stroke-linecap:round;stroke-linejoin:round;stroke-miterlimit:4;stroke-opacity:1;stroke-dasharray:none"
     d="m 672,272 16,80"
     id="path3227-2"
     inkscape:path-effect="#path-effect3229-6"
     inkscape:original-d="m 672,272 16,80"
     inkscape:connector-curvature="0"
     sodipodi:nodetypes="cc" />
  <text
     xml:space="preserve"
     style="font-size:32px;font-style:normal;font-weight:normal;line-height:125%;letter-spacing:0px;word-spacing:0px;fill:#000000;fill-opacity:1;stroke:none;font-family:Sans"
     x="608"
     y="256"
     id="text3223-3"
     sodipodi:linespacing="125%"><tspan
       sodipodi:role="line"
       id="tspan3225-8"
       x="608"
       y="256"
       style="fill:#ffffff">source</tspan></text>
  <text
     xml:space="preserve"
     style="font-size:32px;font-style:normal;font-weight:normal;line-height:125%;letter-spacing:0px;word-spacing:0px;fill:#000000;fill-opacity:1;stroke:none;font-family:Sans"
     x="784"
     y="256"
     id="text3223-3-6"
     sodipodi:linespacing="125%"><tspan
       sodipodi:role="line"
       id="tspan3225-8-3"
       x="784"
       y="256"
       style="fill:#ffffff">destinations</tspan></text>
  <path
     style="fill:none;stroke:#ffffff;stroke-width:1.60000002;stroke-linecap:round;stroke-linejoin:round;stroke-miterlimit:4;stroke-opacity:1;stroke-dasharray:none"
     d="m 880,272 -64,80"
     id="path3227-2-8"
     inkscape:path-effect="#path-effect3229-6-9"
     inkscape:original-d="m 880,272 -64,80"
     inkscape:connector-curvature="0"
     sodipodi:nodetypes="cc" />
  <path
     style="fill:none;stroke:#ffffff;stroke-width:1.60000002;stroke-linecap:round;stroke-linejoin:round;stroke-miterlimit:4;stroke-opacity:1;stroke-dasharray:none"
     d="m 880,272 32,80"
     id="path3227-2-8-4"
     inkscape:path-effect="#path-effect3229-6-9-5"
     inkscape:original-d="m 880,272 32,80"
     inkscape:connector-curvature="0"
     sodipodi:nodetypes="cc" />
</svg>
