<?xml version="1.0" encoding="UTF-8" standalone="no"?>
<!DOCTYPE svg PUBLIC "-//W3C//DTD SVG 1.1//EN"
 "http://www.w3.org/Graphics/SVG/1.1/DTD/svg11.dtd">
<!-- Generated by graphviz version 2.28.0 (20110507.0327)
 -->
<!-- Title: g Pages: 1 -->
<svg width="238pt" height="192pt"
 viewBox="0.00 0.00 237.82 192.08" xmlns="http://www.w3.org/2000/svg" xmlns:xlink="http://www.w3.org/1999/xlink">
<g id="graph1" class="graph" transform="scale(1 1) rotate(0) translate(4 188.077)">
<title>g</title>
<polygon fill="white" stroke="white" points="-4,5 -4,-188.077 234.824,-188.077 234.824,5 -4,5"/>
<!-- cyan -->
<g id="node1" class="node"><title>cyan</title>
<ellipse fill="none" stroke="black" cx="69.788" cy="-27.7481" rx="29.3479" ry="18"/>
<text text-anchor="middle" x="69.788" y="-24.0481" font-family="Helvetica,sans-Serif" font-size="14.00">cyan</text>
</g>
<!-- orange -->
<g id="node3" class="node"><title>orange</title>
<ellipse fill="none" stroke="black" cx="149.478" cy="-18" rx="39.4691" ry="18"/>
<text text-anchor="middle" x="149.478" y="-14.3" font-family="Helvetica,sans-Serif" font-size="14.00">orange</text>
</g>
<!-- cyan&#45;&gt;orange -->
<g id="edge2" class="edge"><title>cyan&#45;&gt;orange</title>
<path fill="none" stroke="black" stroke-width="2" d="M99.3486,-30.6934C101.898,-30.4937 104.507,-30.2471 107.131,-29.9594"/>
<polygon fill="black" stroke="black" points="107.757,-33.4078 117.227,-28.6571 106.861,-26.4653 107.757,-33.4078"/>
</g>
<!-- tomato -->
<g id="node4" class="node"><title>tomato</title>
<ellipse fill="none" stroke="black" cx="38.4983" cy="-101.695" rx="38.4949" ry="18"/>
<text text-anchor="middle" x="38.4983" y="-97.9946" font-family="Helvetica,sans-Serif" font-size="14.00">tomato</text>
</g>
<!-- cyan&#45;&gt;tomato -->
<g id="edge4" class="edge"><title>cyan&#45;&gt;tomato</title>
<path fill="none" stroke="black" stroke-width="2" d="M56.4105,-44.0884C51.7579,-52.8647 46.9126,-63.9008 43.2411,-73.9674"/>
<polygon fill="black" stroke="black" points="39.8749,-72.9971 40.0114,-83.5911 46.5112,-75.2242 39.8749,-72.9971"/>
</g>
<!-- greenyellow -->
<g id="node2" class="node"><title>greenyellow</title>
<ellipse fill="none" stroke="black" cx="166.145" cy="-156.177" rx="59.1941" ry="18"/>
<text text-anchor="middle" x="166.145" y="-152.477" font-family="Helvetica,sans-Serif" font-size="14.00">greenyellow</text>
</g>
<!-- violet -->
<g id="node5" class="node"><title>violet</title>
<ellipse fill="none" stroke="black" cx="197.575" cy="-82.291" rx="32.2457" ry="18"/>
<text text-anchor="middle" x="197.575" y="-78.591" font-family="Helvetica,sans-Serif" font-size="14.00">violet</text>
</g>
<!-- greenyellow&#45;&gt;violet -->
<g id="edge6" class="edge"><title>greenyellow&#45;&gt;violet</title>
<path fill="none" stroke="black" stroke-width="2" d="M180.338,-138.372C184.694,-129.997 189.155,-119.827 192.617,-110.451"/>
<polygon fill="black" stroke="black" points="196.023,-111.307 195.929,-100.713 189.395,-109.053 196.023,-111.307"/>
</g>
<!-- yellow -->
<g id="node6" class="node"><title>yellow</title>
<ellipse fill="none" stroke="black" cx="86.474" cy="-166.077" rx="36.096" ry="18"/>
<text text-anchor="middle" x="86.474" y="-162.377" font-family="Helvetica,sans-Serif" font-size="14.00">yellow</text>
</g>
<!-- greenyellow&#45;&gt;yellow -->
<g id="edge8" class="edge"><title>greenyellow&#45;&gt;yellow</title>
<path fill="none" stroke="black" stroke-width="2" d="M106.664,-157.499C106.618,-157.508 106.571,-157.518 106.525,-157.528"/>
<polygon fill="black" stroke="black" points="115.452,-152.07 106.387,-157.557 116.895,-158.92 115.452,-152.07"/>
</g>
<!-- orange&#45;&gt;cyan -->
<g id="edge10" class="edge"><title>orange&#45;&gt;cyan</title>
<path fill="none" stroke="black" stroke-width="2" d="M109.747,-16.0614C108.166,-16.2492 106.585,-16.4513 105.013,-16.6665"/>
<polygon fill="black" stroke="black" points="104.22,-13.2482 94.8879,-18.2636 105.311,-20.1627 104.22,-13.2482"/>
</g>
<!-- orange&#45;&gt;violet -->
<g id="edge12" class="edge"><title>orange&#45;&gt;violet</title>
<path fill="none" stroke="black" stroke-width="2" d="M155.779,-36.0396C160.148,-43.2945 166.067,-51.712 172.105,-59.3793"/>
<polygon fill="black" stroke="black" points="169.578,-61.8168 178.635,-67.3141 174.983,-57.3686 169.578,-61.8168"/>
</g>
<!-- tomato&#45;&gt;cyan -->
<g id="edge14" class="edge"><title>tomato&#45;&gt;cyan</title>
<path fill="none" stroke="black" stroke-width="2" d="M52.2664,-84.6133C56.7943,-75.9696 61.4681,-65.2795 65.0358,-55.5014"/>
<polygon fill="black" stroke="black" points="68.4395,-56.3596 68.3009,-45.7657 61.8028,-54.1338 68.4395,-56.3596"/>
</g>
<!-- tomato&#45;&gt;yellow -->
<g id="edge16" class="edge"><title>tomato&#45;&gt;yellow</title>
<path fill="none" stroke="black" stroke-width="2" d="M44.7654,-119.746C49.0507,-126.892 54.834,-135.167 60.7557,-142.745"/>
<polygon fill="black" stroke="black" points="58.1378,-145.073 67.1714,-150.609 63.5616,-140.648 58.1378,-145.073"/>
</g>
<!-- violet&#45;&gt;greenyellow -->
<g id="edge18" class="edge"><title>violet&#45;&gt;greenyellow</title>
<path fill="none" stroke="black" stroke-width="2" d="M183.971,-98.9744C179.356,-107.691 174.568,-118.566 170.927,-128.494"/>
<polygon fill="black" stroke="black" points="167.604,-127.398 167.718,-137.992 174.235,-129.639 167.604,-127.398"/>
</g>
<!-- violet&#45;&gt;orange -->
<g id="edge20" class="edge"><title>violet&#45;&gt;orange</title>
<path fill="none" stroke="black" stroke-width="2" d="M191.481,-64.5962C187.277,-57.5721 181.584,-49.418 175.72,-41.8972"/>
<polygon fill="black" stroke="black" points="178.378,-39.6184 169.353,-34.0684 172.947,-44.035 178.378,-39.6184"/>
</g>
<!-- yellow&#45;&gt;greenyellow -->
<g id="edge22" class="edge"><title>yellow&#45;&gt;greenyellow</title>
<path fill="none" stroke="black" stroke-width="2" d="M122.943,-168.314C123.026,-168.305 123.109,-168.296 123.192,-168.287"/>
<polygon fill="black" stroke="black" points="113.884,-172.832 123.442,-168.259 113.118,-165.874 113.884,-172.832"/>
</g>
<!-- yellow&#45;&gt;tomato -->
<g id="edge24" class="edge"><title>yellow&#45;&gt;tomato</title>
<path fill="none" stroke="black" stroke-width="2" d="M80.2069,-148.026C75.9918,-140.997 70.3275,-132.876 64.5077,-125.4"/>
<polygon fill="black" stroke="black" points="67.2134,-123.18 58.1928,-117.623 61.7793,-127.593 67.2134,-123.18"/>
</g>
</g>
</svg>
